<?xml version="1.0" encoding="utf-8"?>
<!-- Generator: Adobe Illustrator 18.0.0, SVG Export Plug-In . SVG Version: 6.00 Build 0)  -->
<!DOCTYPE svg PUBLIC "-//W3C//DTD SVG 1.0//EN" "http://www.w3.org/TR/2001/REC-SVG-20010904/DTD/svg10.dtd">
<svg version="1.0" id="Слой_1" xmlns="http://www.w3.org/2000/svg" xmlns:xlink="http://www.w3.org/1999/xlink" x="0px" y="0px"
	 viewBox="0 0 153 48" enable-background="new 0 0 153 48" xml:space="preserve">
<g>
	<path fill="#930E09" d="M0.2,13.2h7.2c3.3,0,5.6,0.5,7.1,1.4s2.2,2.4,2.2,4.4c0,1.4-0.3,2.5-1,3.4c-0.6,0.9-1.5,1.4-2.6,1.6v0.2
		c1.5,0.3,2.5,0.9,3.2,1.8c0.6,0.9,1,2.1,1,3.6c0,2.1-0.8,3.7-2.3,4.9c-1.5,1.2-3.6,1.8-6.2,1.8H0.2V13.2z M5.1,22.3h2.8
		c1.3,0,2.3-0.2,2.9-0.6c0.6-0.4,0.9-1.1,0.9-2c0-0.9-0.3-1.5-1-1.9c-0.6-0.4-1.7-0.6-3.1-0.6H5.1V22.3z M5.1,26.2v6h3.2
		c1.3,0,2.3-0.3,3-0.8c0.6-0.5,1-1.3,1-2.4c0-1.9-1.4-2.9-4.1-2.9H5.1z"/>
	<path fill="#930E09" d="M31.6,36.2l-5.5-18h-0.1c0.2,3.7,0.3,6.1,0.3,7.3v10.7h-4.4v-23h6.6l5.4,17.6H34l5.8-17.6h6.6v23h-4.5V25.3
		c0-0.5,0-1.1,0-1.8s0.1-2.5,0.2-5.3H42l-5.9,18H31.6z"/>
	<path fill="#930E09" d="M72.6,36.2h-6.2l-10-17.4h-0.1c0.2,3.1,0.3,5.3,0.3,6.6v10.8h-4.4v-23h6.1l10,17.2h0.1
		c-0.2-3-0.2-5.1-0.2-6.3V13.2h4.4V36.2z"/>
	<path fill="#F1F2F2" d="M84.7,36.2h-1.6V14.7l-7.5-3.1v-1.5l16.5,3.1v1.5h-7.5V36.2z"/>
	<path fill="#F1F2F2" d="M102.1,36.5c-2.5,0-4.4-0.8-5.8-2.3c-1.4-1.5-2.1-3.7-2.1-6.4c0-2.7,0.7-4.9,2-6.5c1.3-1.6,3.1-2.5,5.4-2.5
		c2,0,3.6,0.7,4.8,2.1c1.2,1.4,1.7,3.3,1.7,5.7v1.3H95.8c0,2.3,0.6,4.1,1.6,5.4c1.1,1.2,2.6,1.9,4.6,1.9c1,0,1.8-0.1,2.6-0.2
		s1.7-0.4,2.8-0.9v1.4c-1,0.4-1.9,0.7-2.7,0.9C104,36.4,103.1,36.5,102.1,36.5z M101.6,20.1c-1.6,0-3,0.5-4,1.6
		c-1,1.1-1.6,2.6-1.7,4.7h10.6c0-2-0.4-3.5-1.3-4.6C104.3,20.7,103.1,20.1,101.6,20.1z"/>
	<path fill="#F1F2F2" d="M123.2,36.2l-0.4-2.7h-0.1c-0.9,1.1-1.7,1.9-2.6,2.3c-0.9,0.5-2,0.7-3.2,0.7c-1.7,0-3-0.4-3.9-1.3
		s-1.4-2-1.4-3.6c0-1.7,0.7-3,2.1-3.9c1.4-0.9,3.4-1.4,6-1.5l3.3-0.1v-1.1c0-1.6-0.3-2.8-1-3.7c-0.7-0.8-1.7-1.2-3.2-1.2
		c-1.6,0-3.2,0.4-4.9,1.3l-0.6-1.4c1.9-0.9,3.7-1.3,5.6-1.3c1.9,0,3.3,0.5,4.2,1.5c0.9,1,1.4,2.5,1.4,4.6v11.4H123.2z M116.9,35.1
		c1.8,0,3.3-0.5,4.3-1.6c1.1-1,1.6-2.5,1.6-4.3v-1.7l-3,0.1c-2.4,0.1-4.1,0.5-5.1,1.1c-1,0.6-1.5,1.6-1.5,3c0,1.1,0.3,1.9,1,2.5
		S115.7,35.1,116.9,35.1z"/>
	<path fill="#F1F2F2" d="M151.2,36.2V25c0-1.7-0.3-2.9-1-3.6s-1.6-1.1-3-1.1c-1.7,0-3,0.5-3.9,1.4c-0.8,1-1.3,2.5-1.3,4.5v10h-1.6
		V24.5c0-2.9-1.3-4.3-4-4.3c-1.8,0-3.1,0.5-3.9,1.6c-0.8,1-1.2,2.7-1.2,5v9.4h-1.6V19.1h1.3l0.3,2.3h0.1c0.5-0.8,1.1-1.5,2-2
		c0.9-0.5,1.8-0.7,2.9-0.7c2.7,0,4.4,1,5.2,3h0.1c0.6-1,1.3-1.7,2.2-2.2c0.9-0.5,2-0.8,3.2-0.8c1.9,0,3.3,0.5,4.2,1.5
		c0.9,1,1.4,2.6,1.4,4.7v11.2H151.2z"/>
</g>
<path fill="#930E09" d="M46.5,17.6"/>
<path fill="#930E09" d="M33.2,8.7"/>
</svg>
